# This file uses centimeters as units for non-parametric coordinates.

mtllib Right_Leg.mtl
g default
v -0.093776 -1.093563 0.100000
v 0.000000 -1.093563 0.100000
v 0.093776 -1.093563 0.100000
v -0.093776 -0.923044 0.100000
v 0.000000 -0.923044 0.100000
v 0.093776 -0.923044 0.100000
v -0.093776 -0.752526 0.100000
v 0.000000 -0.752526 0.100000
v 0.093776 -0.752526 0.100000
v -0.093776 -0.582008 0.100000
v 0.000000 -0.582008 0.100000
v 0.093776 -0.582008 0.100000
v -0.093776 -0.411489 0.100000
v 0.000000 -0.411489 0.100000
v 0.093776 -0.411489 0.100000
v -0.093776 -0.411489 0.000000
v 0.000000 -0.411489 0.000000
v 0.093776 -0.411489 0.000000
v -0.093776 -0.411489 -0.100000
v 0.000000 -0.411489 -0.100000
v 0.093776 -0.411489 -0.100000
v -0.093776 -0.582008 -0.100000
v 0.000000 -0.582008 -0.100000
v 0.093776 -0.582008 -0.100000
v -0.093776 -0.752526 -0.100000
v 0.000000 -0.752526 -0.100000
v 0.093776 -0.752526 -0.100000
v -0.093776 -0.923044 -0.100000
v 0.000000 -0.923044 -0.100000
v 0.093776 -0.923044 -0.100000
v -0.093776 -1.093563 -0.100000
v 0.000000 -1.093563 -0.100000
v 0.093776 -1.093563 -0.100000
v -0.093776 -1.093563 0.000000
v 0.000000 -1.093563 0.000000
v 0.093776 -1.093563 0.000000
v 0.093776 -0.923044 0.000000
v 0.093776 -0.752526 0.000000
v 0.093776 -0.582008 0.000000
v -0.093776 -0.923044 0.000000
v -0.093776 -0.752526 0.000000
v -0.093776 -0.582008 0.000000
vt 0.800564 0.089290
vt 0.843502 0.089290
vt 0.886440 0.089290
vt 0.800564 0.110759
vt 0.843502 0.110759
vt 0.886440 0.110759
vt 0.800564 0.132228
vt 0.843502 0.132228
vt 0.886440 0.132228
vt 0.800564 0.153697
vt 0.843502 0.153697
vt 0.886440 0.153697
vt 0.800564 0.175166
vt 0.843502 0.175166
vt 0.886440 0.175166
vt 0.800564 0.218104
vt 0.843502 0.218104
vt 0.886440 0.218104
vt 0.800564 0.261042
vt 0.843502 0.261042
vt 0.886440 0.261042
vt 0.800564 0.282511
vt 0.843502 0.282511
vt 0.886440 0.282511
vt 0.800564 0.303980
vt 0.843502 0.303980
vt 0.886440 0.303980
vt 0.800564 0.325449
vt 0.843502 0.325449
vt 0.886440 0.325449
vt 0.800564 0.346918
vt 0.843502 0.346918
vt 0.886440 0.346918
vt 0.800564 0.389856
vt 0.843502 0.389856
vt 0.886440 0.389856
vt 0.800564 0.432794
vt 0.843502 0.432794
vt 0.886440 0.432794
vt 0.972316 0.089290
vt 0.929378 0.089290
vt 0.972316 0.110759
vt 0.929378 0.110759
vt 0.972316 0.132228
vt 0.929378 0.132228
vt 0.972316 0.153697
vt 0.929378 0.153697
vt 0.972316 0.175166
vt 0.929378 0.175166
vt 0.714688 0.089290
vt 0.757626 0.089290
vt 0.714688 0.110759
vt 0.757626 0.110759
vt 0.714688 0.132228
vt 0.757626 0.132228
vt 0.714688 0.153697
vt 0.757626 0.153697
vt 0.714688 0.175166
vt 0.757626 0.175166
vn 0.000000 0.000000 1.000000
vn 0.000000 0.000000 1.000000
vn 0.000000 0.000000 1.000000
vn 0.000000 0.000000 1.000000
vn 0.000000 0.000000 1.000000
vn 0.000000 0.000000 1.000000
vn 0.000000 0.000000 1.000000
vn 0.000000 0.000000 1.000000
vn 0.000000 0.000000 1.000000
vn 0.000000 0.000000 1.000000
vn 0.000000 0.000000 1.000000
vn 0.000000 0.000000 1.000000
vn 0.000000 0.000000 1.000000
vn 0.000000 0.000000 1.000000
vn 0.000000 0.000000 1.000000
vn 0.000000 1.000000 0.000000
vn 0.000000 1.000000 0.000000
vn 0.000000 1.000000 0.000000
vn 0.000000 1.000000 0.000000
vn 0.000000 1.000000 0.000000
vn 0.000000 1.000000 0.000000
vn 0.000000 1.000000 0.000000
vn 0.000000 1.000000 0.000000
vn 0.000000 1.000000 0.000000
vn 0.000000 0.000000 -1.000000
vn 0.000000 0.000000 -1.000000
vn 0.000000 0.000000 -1.000000
vn 0.000000 0.000000 -1.000000
vn 0.000000 0.000000 -1.000000
vn 0.000000 0.000000 -1.000000
vn 0.000000 0.000000 -1.000000
vn 0.000000 0.000000 -1.000000
vn 0.000000 0.000000 -1.000000
vn 0.000000 0.000000 -1.000000
vn 0.000000 0.000000 -1.000000
vn 0.000000 0.000000 -1.000000
vn 0.000000 0.000000 -1.000000
vn 0.000000 0.000000 -1.000000
vn 0.000000 0.000000 -1.000000
vn 0.000000 -1.000000 0.000000
vn 0.000000 -1.000000 0.000000
vn 0.000000 -1.000000 0.000000
vn 0.000000 -1.000000 0.000000
vn 0.000000 -1.000000 0.000000
vn 0.000000 -1.000000 0.000000
vn 0.000000 -1.000000 0.000000
vn 0.000000 -1.000000 0.000000
vn 0.000000 -1.000000 0.000000
vn 1.000000 0.000000 0.000000
vn 1.000000 0.000000 0.000000
vn 1.000000 0.000000 0.000000
vn 1.000000 0.000000 0.000000
vn 1.000000 0.000000 0.000000
vn 1.000000 0.000000 0.000000
vn 1.000000 0.000000 0.000000
vn 1.000000 0.000000 0.000000
vn 1.000000 0.000000 0.000000
vn 1.000000 0.000000 0.000000
vn 1.000000 0.000000 0.000000
vn 1.000000 0.000000 0.000000
vn 1.000000 0.000000 0.000000
vn 1.000000 0.000000 0.000000
vn 1.000000 0.000000 0.000000
vn -1.000000 0.000000 0.000000
vn -1.000000 0.000000 0.000000
vn -1.000000 0.000000 0.000000
vn -1.000000 0.000000 0.000000
vn -1.000000 0.000000 0.000000
vn -1.000000 0.000000 0.000000
vn -1.000000 0.000000 0.000000
vn -1.000000 0.000000 0.000000
vn -1.000000 0.000000 0.000000
vn -1.000000 0.000000 0.000000
vn -1.000000 0.000000 0.000000
vn -1.000000 0.000000 0.000000
vn -1.000000 0.000000 0.000000
vn -1.000000 0.000000 0.000000
vn -1.000000 0.000000 0.000000
s 1
g pCube7
usemtl initialShadingGroup
f 1/1/1 2/2/2 5/5/3 4/4/4
f 2/2/2 3/3/5 6/6/6 5/5/3
f 4/4/4 5/5/3 8/8/7 7/7/8
f 5/5/3 6/6/6 9/9/9 8/8/7
f 7/7/8 8/8/7 11/11/10 10/10/11
f 8/8/7 9/9/9 12/12/12 11/11/10
f 10/10/11 11/11/10 14/14/13 13/13/14
f 11/11/10 12/12/12 15/15/15 14/14/13
s 2
f 13/13/16 14/14/17 17/17/18 16/16/19
f 14/14/17 15/15/20 18/18/21 17/17/18
f 16/16/19 17/17/18 20/20/22 19/19/23
f 17/17/18 18/18/21 21/21/24 20/20/22
s 3
f 19/19/25 20/20/26 23/23/27 22/22/28
f 20/20/26 21/21/29 24/24/30 23/23/27
f 22/22/28 23/23/27 26/26/31 25/25/32
f 23/23/27 24/24/30 27/27/33 26/26/31
f 25/25/32 26/26/31 29/29/34 28/28/35
f 26/26/31 27/27/33 30/30/36 29/29/34
f 28/28/35 29/29/34 32/32/37 31/31/38
f 29/29/34 30/30/36 33/33/39 32/32/37
s 4
f 31/31/40 32/32/41 35/35/42 34/34/43
f 32/32/41 33/33/44 36/36/45 35/35/42
f 34/34/43 35/35/42 2/38/46 1/37/47
f 35/35/42 36/36/45 3/39/48 2/38/46
s 5
f 36/41/49 33/40/50 30/42/51 37/43/52
f 3/3/53 36/41/49 37/43/52 6/6/54
f 37/43/52 30/42/51 27/44/55 38/45/56
f 6/6/54 37/43/52 38/45/56 9/9/57
f 38/45/56 27/44/55 24/46/58 39/47/59
f 9/9/57 38/45/56 39/47/59 12/12/60
f 39/47/59 24/46/58 21/48/61 18/49/62
f 12/12/60 39/47/59 18/49/62 15/15/63
s 6
f 31/50/64 34/51/65 40/53/66 28/52/67
f 34/51/65 1/1/68 4/4/69 40/53/66
f 28/52/67 40/53/66 41/55/70 25/54/71
f 40/53/66 4/4/69 7/7/72 41/55/70
f 25/54/71 41/55/70 42/57/73 22/56/74
f 41/55/70 7/7/72 10/10/75 42/57/73
f 22/56/74 42/57/73 16/59/76 19/58/77
f 42/57/73 10/10/75 13/13/78 16/59/76
