# This file uses centimeters as units for non-parametric coordinates.

mtllib Mining_Laser.mtl
g default1
v 0.750000 -0.006000 1.000000
v -0.750000 -0.006000 1.000000
v 0.750000 -0.006000 0.000000
v -0.750000 -0.006000 0.000000
v -0.750000 0.006000 1.000000
v 0.750000 0.006000 1.000000
v -0.750000 0.006000 0.000000
v 0.750000 0.006000 0.000000
v 0.380196 0.646519 1.000000
v -0.369804 -0.652519 1.000000
v 0.380196 0.646519 0.000000
v -0.369804 -0.652519 0.000000
v -0.380196 -0.646519 1.000000
v 0.369804 0.652519 1.000000
v -0.380196 -0.646519 0.000000
v 0.369804 0.652519 0.000000
v -0.369804 0.652519 1.000000
v 0.380196 -0.646519 1.000000
v -0.369804 0.652519 0.000000
v 0.380196 -0.646519 0.000000
v 0.369804 -0.652519 1.000000
v -0.380196 0.646519 1.000000
v 0.369804 -0.652519 0.000000
v -0.380196 0.646519 0.000000
v 0.006000 0.750000 1.000000
v 0.006000 -0.750000 1.000000
v 0.006000 0.750000 0.000000
v 0.006000 -0.750000 0.000000
v -0.006000 -0.750000 1.000000
v -0.006000 0.750000 1.000000
v -0.006000 -0.750000 0.000000
v -0.006000 0.750000 0.000000
v -0.646519 0.380196 1.000000
v 0.652519 -0.369804 1.000000
v -0.646519 0.380196 0.000000
v 0.652519 -0.369804 0.000000
v 0.646519 -0.380196 1.000000
v -0.652519 0.369804 1.000000
v 0.646519 -0.380196 0.000000
v -0.652519 0.369804 0.000000
v -0.652519 -0.369804 1.000000
v 0.646519 0.380196 1.000000
v -0.652519 -0.369804 0.000000
v 0.646519 0.380196 0.000000
v 0.652519 0.369804 1.000000
v -0.646519 -0.380196 1.000000
v 0.652519 0.369804 0.000000
v -0.646519 -0.380196 0.000000
vt 0.000000 0.009837
vt 1.000000 0.009837
vt 1.000000 0.990163
vt 0.000000 0.990163
vt 0.000000 0.009837
vt 1.000000 0.009837
vt 1.000000 0.990163
vt 0.000000 0.990163
vt 0.000000 0.009837
vt 1.000000 0.009837
vt 1.000000 0.990163
vt 0.000000 0.990163
vt 0.000000 0.009837
vt 1.000000 0.009837
vt 1.000000 0.990163
vt 0.000000 0.990163
vt 0.000000 0.009837
vt 1.000000 0.009837
vt 1.000000 0.990163
vt 0.000000 0.990163
vt 0.000000 0.009837
vt 1.000000 0.009837
vt 1.000000 0.990163
vt 0.000000 0.990163
vt 0.000000 0.009837
vt 1.000000 0.009837
vt 1.000000 0.990163
vt 0.000000 0.990163
vt 0.000000 0.009837
vt 1.000000 0.009837
vt 1.000000 0.990163
vt 0.000000 0.990163
vt 0.000000 0.009837
vt 1.000000 0.009837
vt 1.000000 0.990163
vt 0.000000 0.990163
vt 0.000000 0.009837
vt 1.000000 0.009837
vt 1.000000 0.990163
vt 0.000000 0.990163
vt 0.000000 0.009837
vt 1.000000 0.009837
vt 1.000000 0.990163
vt 0.000000 0.990163
vt 0.000000 0.009837
vt 1.000000 0.009837
vt 1.000000 0.990163
vt 0.000000 0.990163
vn 0.000000 -1.000000 0.000000
vn 0.000000 -1.000000 0.000000
vn 0.000000 -1.000000 0.000000
vn 0.000000 -1.000000 0.000000
vn 0.000000 1.000000 0.000000
vn 0.000000 1.000000 0.000000
vn 0.000000 1.000000 0.000000
vn 0.000000 1.000000 0.000000
vn 0.866025 -0.500000 0.000000
vn 0.866025 -0.500000 0.000000
vn 0.866025 -0.500000 0.000000
vn 0.866025 -0.500000 0.000000
vn -0.866025 0.500000 0.000000
vn -0.866025 0.500000 0.000000
vn -0.866025 0.500000 0.000000
vn -0.866025 0.500000 0.000000
vn 0.866025 0.500000 0.000000
vn 0.866025 0.500000 0.000000
vn 0.866025 0.500000 0.000000
vn 0.866025 0.500000 0.000000
vn -0.866025 -0.500000 0.000000
vn -0.866025 -0.500000 0.000000
vn -0.866025 -0.500000 0.000000
vn -0.866025 -0.500000 0.000000
vn 1.000000 -0.000000 0.000000
vn 1.000000 -0.000000 0.000000
vn 1.000000 -0.000000 0.000000
vn 1.000000 -0.000000 0.000000
vn -1.000000 0.000000 0.000000
vn -1.000000 0.000000 0.000000
vn -1.000000 0.000000 0.000000
vn -1.000000 0.000000 0.000000
vn 0.500000 0.866025 0.000000
vn 0.500000 0.866025 0.000000
vn 0.500000 0.866025 0.000000
vn 0.500000 0.866025 0.000000
vn -0.500000 -0.866025 0.000000
vn -0.500000 -0.866025 0.000000
vn -0.500000 -0.866025 0.000000
vn -0.500000 -0.866025 0.000000
vn -0.500000 0.866025 0.000000
vn -0.500000 0.866025 0.000000
vn -0.500000 0.866025 0.000000
vn -0.500000 0.866025 0.000000
vn 0.500000 -0.866025 0.000000
vn 0.500000 -0.866025 0.000000
vn 0.500000 -0.866025 0.000000
vn 0.500000 -0.866025 0.000000
s off
g initialShadingGroup initialShadingGroup1 initialShadingGroup2 pPlane1 polySurface2 polySurface8
f 1/1/1 2/2/2 4/3/3 3/4/4
g initialShadingGroup initialShadingGroup1 initialShadingGroup2 pPlane2 polySurface2 polySurface8
f 5/5/5 6/6/6 8/7/7 7/8/8
g initialShadingGroup initialShadingGroup1 initialShadingGroup2 pPlane1 polySurface2 polySurface8
f 9/9/9 10/10/10 12/11/11 11/12/12
g initialShadingGroup initialShadingGroup1 initialShadingGroup2 pPlane2 polySurface2 polySurface8
f 13/13/13 14/14/14 16/15/15 15/16/16
g initialShadingGroup initialShadingGroup1 initialShadingGroup2 pPlane1 polySurface2 polySurface8
f 17/17/17 18/18/18 20/19/19 19/20/20
g initialShadingGroup initialShadingGroup1 initialShadingGroup2 pPlane2 polySurface2 polySurface8
f 21/21/21 22/22/22 24/23/23 23/24/24
g initialShadingGroup initialShadingGroup1 initialShadingGroup2 pPlane1 polySurface2 polySurface8
f 25/25/25 26/26/26 28/27/27 27/28/28
g initialShadingGroup initialShadingGroup1 initialShadingGroup2 pPlane2 polySurface2 polySurface8
f 29/29/29 30/30/30 32/31/31 31/32/32
g initialShadingGroup initialShadingGroup1 initialShadingGroup2 pPlane1 polySurface2 polySurface8
f 33/33/33 34/34/34 36/35/35 35/36/36
g initialShadingGroup initialShadingGroup1 initialShadingGroup2 pPlane2 polySurface2 polySurface8
f 37/37/37 38/38/38 40/39/39 39/40/40
g initialShadingGroup initialShadingGroup1 initialShadingGroup2 pPlane1 polySurface2 polySurface8
f 41/41/41 42/42/42 44/43/43 43/44/44
g initialShadingGroup initialShadingGroup1 initialShadingGroup2 pPlane2 polySurface2 polySurface8
f 45/45/45 46/46/46 48/47/47 47/48/48
